<svg width="18" height="15" viewBox="0 0 18 15" fill="none" xmlns="http://www.w3.org/2000/svg">
<path d="M16.5 2.25003H12.75V1.50001C12.75 0.672749 12.0773 0 11.25 0H6.74999C5.92273 0 5.24998 0.672714 5.24998 1.50001V2.25H1.50001C0.672714 2.25003 0 2.92274 0 3.75V6C0 6.8273 0.672714 7.50001 1.50001 7.50001H7.50001V7.125C7.50001 6.91772 7.66774 6.74999 7.87502 6.74999H10.125C10.3323 6.74999 10.5 6.91772 10.5 7.125V7.50001H16.5C17.3273 7.50001 18 6.8273 18 6V3.75C18 2.92274 17.3273 2.25003 16.5 2.25003ZM11.25 2.25003H6.74999V1.50001H11.25V2.25003Z" fill="#00C389"/>
<path d="M17.7919 7.90469C17.6642 7.84133 17.5114 7.85599 17.3986 7.94167C17.132 8.14347 16.8215 8.25002 16.4999 8.25002H10.5V9.37502C10.5 9.5823 10.3323 9.75003 10.125 9.75003H7.87498C7.6677 9.75003 7.49997 9.5823 7.49997 9.37502V8.25002H1.50001C1.17847 8.25002 0.867936 8.14347 0.601311 7.94167C0.488144 7.85526 0.335812 7.8406 0.207984 7.90469C0.080578 7.96807 0 8.09804 0 8.24053V13.5C0 14.3273 0.672714 15 1.50001 15H16.5C17.3273 15 18 14.3273 18 13.5V8.24053C18 8.09804 17.9194 7.96807 17.7919 7.90469Z" fill="#00C389"/>
</svg>
