<svg width="18" height="18" viewBox="0 0 18 18" fill="none" xmlns="http://www.w3.org/2000/svg">
<path d="M15.3639 13.1179C14.8759 12.6299 14.1468 12.5267 13.5565 12.8079L12.7224 11.9739C12.5014 12.2502 12.2502 12.5014 11.9738 12.7226L12.8078 13.5566C12.5266 14.1469 12.6297 14.8759 13.1178 15.364C13.737 15.9831 14.7446 15.9832 15.3639 15.364C15.9831 14.7447 15.9831 13.7371 15.3639 13.1179H15.3639Z" fill="#00C489"/>
<path d="M16.4118 7.41177C15.7216 7.41177 15.1331 7.85439 14.9146 8.47059H13.7351C13.6332 7.55294 13.2697 6.71319 12.721 6.02764L13.5566 5.19208C14.147 5.47334 14.8756 5.37056 15.364 4.88209C15.9832 4.26286 15.9832 3.25528 15.364 2.63601C14.7448 2.01678 13.7371 2.01674 13.1179 2.63601C12.6299 3.12406 12.5267 3.85313 12.8079 4.44339L11.9723 5.27894C11.2868 4.73022 10.4471 4.36677 9.52941 4.26487V3.08541C11.1874 2.47182 10.7901 0.0338118 8.99996 0C7.2096 0.0339529 6.81282 2.47214 8.47059 3.08541V4.26487C7.55294 4.36677 6.71319 4.73022 6.02767 5.27894L5.19208 4.44339C5.47327 3.85313 5.37014 3.12406 4.88213 2.63601C3.33 1.20766 1.20829 3.33173 2.63605 4.88213C3.12582 5.37187 3.85458 5.4726 4.44339 5.19208L5.27894 6.02764C4.73026 6.71319 4.36677 7.55294 4.26487 8.47059H3.08541C2.47182 6.81258 0.0338118 7.20992 0 9.00004C0.0339529 10.7904 2.47214 11.1872 3.08541 9.52941H4.2648C4.377 10.5392 4.80596 11.4548 5.44994 12.1743C5.71959 11.2097 6.49645 10.2998 7.42281 9.88179C6.20859 8.54615 7.17706 6.34648 9.00004 6.35298C10.8229 6.34641 11.7916 8.54651 10.5772 9.88175C11.5037 10.2999 12.2804 11.2096 12.5501 12.1743C13.1941 11.4548 13.623 10.5392 13.7352 9.52941H14.9146C15.5284 11.1876 17.9662 10.7899 18 8.99996C18 8.12425 17.2875 7.41177 16.4118 7.41177Z" fill="#00C489"/>
<path d="M10.0588 8.47063C10.0588 7.88679 9.58383 7.4118 9 7.4118C7.59533 7.46997 7.59575 9.4715 9 9.52945C9.58383 9.52945 10.0588 9.05446 10.0588 8.47063Z" fill="#00C489"/>
<path d="M11.6323 12.9695C11.2235 9.80743 6.77511 9.80973 6.36768 12.9695C6.98349 13.3792 7.69953 13.6496 8.47057 13.7352V14.9146C6.81256 15.5281 7.2099 17.9662 9.00002 18C10.7904 17.9661 11.1872 15.5278 9.52939 14.9146V13.7352C10.3004 13.6496 11.0164 13.3792 11.6323 12.9695Z" fill="#00C489"/>
<path d="M5.2775 11.9738L4.44343 12.8079C3.85317 12.5267 3.12406 12.6298 2.63608 13.1178C2.01681 13.7371 2.01681 14.7447 2.63608 15.364C3.25528 15.9831 4.2629 15.9832 4.88217 15.364C5.37021 14.8759 5.47331 14.1468 5.19212 13.5566L6.02615 12.7225C5.7498 12.5014 5.49858 12.2502 5.2775 11.9738Z" fill="#00C489"/>
</svg>
