<svg width="70" height="70" viewBox="0 0 70 70" fill="none" xmlns="http://www.w3.org/2000/svg">
<rect opacity="0.05" width="70" height="70" rx="6" fill="#263959"/>
<path d="M48.1797 21H44.8438C44.3903 21 44.0234 21.3669 44.0234 21.8203V22.6406H37.3098C36.9701 21.6879 36.068 21 35 21C33.932 21 33.0299 21.6879 32.6902 22.6406H25.9766V21.8203C25.9766 21.3669 25.6097 21 25.1562 21H21.8203C21.3669 21 21 21.3669 21 21.8203V25.1016C21 25.555 21.3669 25.9219 21.8203 25.9219H25.1562C25.6097 25.9219 25.9766 25.555 25.9766 25.1016V24.2703H29.3455C26.4987 26.0488 24.6215 29.1725 24.3971 32.6711C23.4129 32.9933 22.6953 33.9095 22.6953 35C22.6953 36.357 23.7992 37.4609 25.1562 37.4609C26.5133 37.4609 27.6172 36.357 27.6172 35C27.6172 33.9533 26.9576 33.0634 26.0345 32.7082C26.3144 28.8076 29.0361 25.52 32.822 24.582C33.2314 25.3737 34.0488 25.9219 35 25.9219C35.9512 25.9219 36.7686 25.3737 37.178 24.582C40.9639 25.52 43.6856 28.8076 43.9655 32.7082C43.0424 33.0634 42.3828 33.9533 42.3828 35C42.3828 36.357 43.4867 37.4609 44.8438 37.4609C46.2008 37.4609 47.3047 36.357 47.3047 35C47.3047 33.9095 46.5871 32.9933 45.6029 32.6711C45.3785 29.1725 43.5013 26.0597 40.6545 24.2812H44.0234V25.1016C44.0234 25.555 44.3903 25.9219 44.8438 25.9219H48.1797C48.6331 25.9219 49 25.555 49 25.1016V21.8203C49 21.3669 48.6331 21 48.1797 21Z" fill="#263959"/>
<path d="M40.5809 47.9825C40.1518 46.6695 38.9157 45.6641 37.461 45.6641H32.5391C31.0844 45.6641 29.8483 46.6695 29.4192 47.9825C29.2538 48.4888 29.6844 49 30.2171 49H39.783C40.3156 49 40.7463 48.4888 40.5809 47.9825Z" fill="#263959"/>
<path d="M42.245 37.8263L35.8203 28.1892V35.9715C36.7731 36.3112 37.4609 37.2132 37.4609 38.2813C37.4609 39.6383 36.357 40.7422 35 40.7422C33.643 40.7422 32.5391 39.6383 32.5391 38.2813C32.5391 37.2132 33.2269 36.3112 34.1797 35.9715V28.1892L27.755 37.8263C27.5379 38.1515 27.5812 38.5849 27.8575 38.8613C29.3635 40.3672 30.3261 42.3073 30.6976 44.3883C31.2674 44.1571 31.8872 44.0235 32.5391 44.0235H37.4609C38.1128 44.0235 38.7326 44.1571 39.3024 44.3882C39.6739 42.3071 40.6365 40.3672 42.1425 38.8613C42.4189 38.5849 42.4621 38.1515 42.245 37.8263Z" fill="#263959"/>
<path d="M35 37.4609C34.5474 37.4609 34.1797 37.8287 34.1797 38.2812C34.1797 38.7338 34.5474 39.1016 35 39.1016C35.4526 39.1016 35.8203 38.7338 35.8203 38.2812C35.8203 37.8287 35.4526 37.4609 35 37.4609Z" fill="#263959"/>
</svg>
