<svg width="18" height="17" viewBox="0 0 18 17" fill="none" xmlns="http://www.w3.org/2000/svg">
<path d="M17.613 7.63771L14.1893 10.9311L14.9854 15.5819C15.0318 15.8042 15.0121 16.0351 14.9288 16.2467C14.8455 16.4583 14.7021 16.6418 14.5158 16.7751C14.3294 16.9084 14.108 16.9859 13.8782 16.9982C13.6483 17.0106 13.4197 16.9574 13.2197 16.8449L9 14.6434L4.76833 16.839C4.59363 16.932 4.39823 16.9807 4.19971 16.9807C3.9453 16.981 3.69683 16.9048 3.48745 16.7623C3.30281 16.6304 3.16022 16.4492 3.07646 16.2401C2.99269 16.031 2.97123 15.8026 3.0146 15.5819L3.82263 10.937L0.387015 7.63771C0.217935 7.48448 0.0971238 7.28651 0.0389902 7.06744C-0.0191434 6.84837 -0.0121456 6.61743 0.059149 6.40217C0.130444 6.18691 0.263026 5.99641 0.441082 5.8534C0.619139 5.71039 0.835154 5.6209 1.06336 5.59561L5.79183 4.91687L7.91066 0.691002C8.00588 0.484917 8.15921 0.310191 8.35236 0.187669C8.54552 0.0651468 8.77033 0 9 0C9.22967 0 9.45448 0.0651468 9.64764 0.187669C9.84079 0.310191 9.99412 0.484917 10.0893 0.691002L12.2082 4.91687L16.9366 5.59561C17.1648 5.6209 17.3809 5.71039 17.5589 5.8534C17.737 5.99641 17.8696 6.18691 17.9409 6.40217C18.0121 6.61743 18.0191 6.84837 17.961 7.06744C17.9029 7.28651 17.7821 7.48448 17.613 7.63771Z" fill="#00C389"/>
</svg>
