<svg width="11" height="18" viewBox="0 0 11 18" fill="none" xmlns="http://www.w3.org/2000/svg">
<path d="M2.95679 7.7077V17.5484C2.95679 17.7282 3.15672 17.8113 3.26184 17.6751L5.37433 14.9381C5.4436 14.8484 5.56798 14.8484 5.63724 14.9381L7.74974 17.6751C7.85485 17.8113 8.05479 17.7282 8.05479 17.5484V7.7077H2.95679Z" fill="#41F5C0"/>
<path d="M4.48244 7.7077H2.95679V17.5484C2.95679 17.7282 3.15672 17.8113 3.26184 17.6751L4.48244 16.0937V7.7077Z" fill="#00C389"/>
<path d="M7.3226 15.5784C7.19624 15.5784 7.09375 15.4759 7.09375 15.3495V12.7467C7.09375 12.6203 7.19624 12.5178 7.3226 12.5178C7.44896 12.5178 7.55145 12.6203 7.55145 12.7467V15.3495C7.55145 15.4759 7.44896 15.5784 7.3226 15.5784Z" fill="#00C389"/>
<path d="M5.43157 12.7661C5.76471 12.7661 6.03478 12.496 6.03478 12.1629C6.03478 11.8298 5.76471 11.5597 5.43157 11.5597C5.09843 11.5597 4.82837 11.8298 4.82837 12.1629C4.82837 12.496 5.09843 12.7661 5.43157 12.7661Z" fill="#00C389"/>
<path d="M5.48912 11.4581C5.35906 11.4577 5.2346 11.3875 5.16614 11.2749C4.73892 10.5723 3.99371 10.1529 3.17265 10.1529C2.91683 10.1529 2.66407 10.1949 2.42138 10.2776C2.38137 10.2912 2.33987 10.2981 2.29807 10.2981C2.19634 10.2981 2.09695 10.2561 2.02539 10.183C1.95319 10.1091 1.91479 10.0115 1.91707 9.90799L1.91787 9.88137C1.91826 9.87096 1.91864 9.86173 1.91864 9.85242C1.91864 8.82139 1.25696 7.92564 0.272116 7.62356C0.148844 7.58572 0.0537194 7.48919 0.0178284 7.3653L0.0154254 7.35714C-0.0180245 7.24279 0.00455517 7.11758 0.0757268 7.02215C0.363846 6.63997 0.525222 6.18754 0.543759 5.71207C0.56363 5.2004 0.403627 4.67734 0.0931955 4.23913C0.0386153 4.16212 0.0236641 4.06261 0.0531474 3.9729L0.0662296 3.93324C0.0677934 3.92851 0.0819056 3.88689 0.094416 3.85024C0.127103 3.75401 0.205712 3.68162 0.304536 3.65679L0.34817 3.64584C1.38516 3.3853 2.10938 2.45564 2.10938 1.38509C2.10938 1.37388 2.10896 1.36278 2.10858 1.35164L2.10778 1.32288C2.10423 1.1929 2.16621 1.07146 2.27354 0.997959C2.27953 0.99384 2.30192 0.979194 2.30192 0.979194L2.31245 0.972405C2.37275 0.934988 2.44182 0.915307 2.51315 0.915307C2.56361 0.915307 2.61285 0.925109 2.65949 0.944523L2.66563 0.947079C2.94784 1.0636 3.24676 1.12268 3.55417 1.12268C4.2985 1.12268 5.00438 0.761941 5.44251 0.157707C5.51406 0.0590732 5.62948 0.000183105 5.75134 0.000183105C5.8724 0.000183105 5.98351 0.0556786 6.0562 0.152443C6.50143 0.744815 7.18107 1.08454 7.92086 1.08454C8.00869 1.08454 8.09798 1.0797 8.18628 1.07012C8.29399 1.05841 8.40929 1.03599 8.53867 1.00147C8.56785 0.993687 8.59798 0.989721 8.62819 0.989721C8.70115 0.989721 8.7711 1.01219 8.83049 1.05468L8.84365 1.06413C8.84941 1.06825 8.88179 1.09217 8.88179 1.09217C8.97413 1.15949 9.02741 1.26781 9.02444 1.38197L9.02333 1.42503C9.02287 1.4383 9.02245 1.44978 9.02245 1.46138C9.02245 2.48612 9.70846 3.40502 10.6908 3.69596C10.8082 3.73074 10.9024 3.82057 10.9426 3.93621C10.983 4.05186 10.9649 4.18074 10.8945 4.28093C10.618 4.67451 10.4718 5.13717 10.4718 5.61878C10.4718 6.11938 10.6287 6.59683 10.9256 6.99961C10.9976 7.09736 11.0187 7.2201 10.9836 7.33632C10.9484 7.45253 10.8628 7.54297 10.7487 7.58439C9.8349 7.91622 9.21789 8.79259 9.21339 9.76519C9.21243 9.97459 9.04145 10.145 8.83228 10.145C8.79055 10.145 8.74917 10.1381 8.70924 10.1246C8.46692 10.0423 8.21451 10.0005 7.959 10.0005C7.08991 10.0005 6.29917 10.479 5.89437 11.2496L5.89235 11.2534C5.82698 11.3785 5.69867 11.4569 5.55751 11.4581C5.53356 11.4583 5.51452 11.4585 5.51128 11.4585L5.48912 11.4581Z" fill="#00C389"/>
<path d="M6.30003 10.1528C6.04421 10.1528 5.79145 10.1947 5.54876 10.2774C5.50875 10.291 5.46725 10.298 5.42545 10.298C5.32372 10.298 5.22433 10.256 5.15277 10.1828C5.08057 10.109 5.04217 10.0113 5.04445 9.90781L5.04525 9.88119C5.04564 9.87077 5.04602 9.86154 5.04602 9.85224C5.04602 8.8212 4.38434 7.92545 3.3995 7.62338C3.27622 7.58554 3.1811 7.489 3.14521 7.36512L3.1428 7.35696C3.10935 7.24261 3.13194 7.11739 3.20311 7.02196C3.49123 6.63979 3.6526 6.18736 3.67114 5.71189C3.69101 5.20022 3.53101 4.67715 3.22058 4.23895C3.16599 4.16194 3.15104 4.06243 3.18053 3.97272L3.19361 3.93305C3.19517 3.92832 3.20929 3.88671 3.2218 3.85006C3.25448 3.75383 3.33309 3.68144 3.43192 3.65661L3.47555 3.64566C4.51253 3.38512 5.23676 2.45546 5.23676 1.38491C5.23676 1.3737 5.23634 1.3626 5.23596 1.35146L5.23516 1.3227C5.23161 1.19272 5.29359 1.07127 5.40092 0.997776C5.40691 0.993657 5.4293 0.979011 5.4293 0.979011L5.43983 0.972221C5.50013 0.934805 5.5692 0.915124 5.64053 0.915124C5.69099 0.915124 5.74023 0.924926 5.78687 0.94434L5.79302 0.946896C6.07522 1.06342 6.37414 1.1225 6.68155 1.1225C6.91612 1.1225 7.14684 1.08649 7.36661 1.01853C6.84793 0.893269 6.38706 0.592792 6.05596 0.15226C5.98326 0.0554956 5.87216 0 5.7511 0C5.62927 0 5.51382 0.0588521 5.44227 0.157524C5.00418 0.761758 4.29826 1.1225 3.55393 1.1225C3.24651 1.1225 2.94764 1.06342 2.66539 0.946896L2.65925 0.94434C2.6126 0.924926 2.56336 0.915124 2.5129 0.915124C2.44158 0.915124 2.3725 0.934805 2.3122 0.972221L2.30168 0.979011C2.30168 0.979011 2.27929 0.993657 2.2733 0.997776C2.16601 1.07124 2.10403 1.19268 2.10754 1.3227L2.10834 1.35146C2.10872 1.3626 2.10914 1.3737 2.10914 1.38491C2.10914 2.4555 1.38491 3.38515 0.347926 3.64566L0.304292 3.65661C0.205468 3.68144 0.126897 3.75383 0.0941718 3.85006C0.0816615 3.88671 0.0675493 3.92832 0.0659855 3.93305L0.0529032 3.97272C0.02342 4.06243 0.0383712 4.16198 0.0929514 4.23895C0.403421 4.67711 0.563424 5.20022 0.543515 5.71189C0.525016 6.18732 0.363602 6.63979 0.0754827 7.02196C0.00431103 7.11739 -0.0182687 7.24265 0.0151812 7.35696L0.0175843 7.36512C0.0534752 7.489 0.1486 7.58554 0.271872 7.62338C1.25672 7.92545 1.91839 8.8212 1.91839 9.85224C1.91839 9.86154 1.91801 9.87077 1.91763 9.88119L1.91683 9.90781C1.9145 10.0113 1.95295 10.109 2.02515 10.1828C2.0967 10.256 2.1961 10.298 2.29782 10.298C2.33966 10.298 2.38116 10.2911 2.42113 10.2774C2.66383 10.1947 2.91659 10.1528 3.1724 10.1528C3.99343 10.1528 4.73864 10.5722 5.1659 11.2747C5.23436 11.3873 5.35881 11.4575 5.48888 11.4579L5.51092 11.4581C5.51416 11.4581 5.5332 11.458 5.55715 11.4578C5.69831 11.4566 5.82662 11.3782 5.89199 11.2531L5.89401 11.2492C6.12931 10.8013 6.49516 10.4524 6.93085 10.2385C6.72885 10.1824 6.51713 10.1528 6.30003 10.1528Z" fill="#00C389"/>
<path d="M5.50571 9.74183C7.72373 9.74183 9.5218 7.94377 9.5218 5.72574C9.5218 3.50772 7.72373 1.70966 5.50571 1.70966C3.28769 1.70966 1.48962 3.50772 1.48962 5.72574C1.48962 7.94377 3.28769 9.74183 5.50571 9.74183Z" fill="#41F5C0"/>
<path d="M5.50582 8.979C7.30255 8.979 8.75909 7.52246 8.75909 5.72573C8.75909 3.92901 7.30255 2.47247 5.50582 2.47247C3.7091 2.47247 2.25256 3.92901 2.25256 5.72573C2.25256 7.52246 3.7091 8.979 5.50582 8.979Z" fill="#00C389"/>
<path d="M5.2864 3.72474L4.85514 4.59856C4.81059 4.6888 4.72451 4.75135 4.62492 4.76581L3.66063 4.90594C3.46001 4.93508 3.37987 5.18166 3.52508 5.32317L4.22287 6.00334C4.29492 6.0736 4.32784 6.17479 4.31082 6.27399L4.14609 7.23439C4.1118 7.43421 4.32154 7.58659 4.501 7.49226L5.36349 7.03884C5.45255 6.992 5.55896 6.992 5.64806 7.03884L6.51055 7.49226C6.69 7.58663 6.89974 7.43421 6.86545 7.23439L6.70072 6.27399C6.68371 6.17479 6.71659 6.0736 6.78867 6.00334L7.48643 5.32317C7.6316 5.18166 7.5515 4.93508 7.35088 4.90594L6.38659 4.76581C6.287 4.75135 6.20092 4.6888 6.15637 4.59856L5.7251 3.72474C5.63536 3.54292 5.37615 3.54292 5.2864 3.72474Z" fill="#41F5C0"/>
<path d="M6.59287 8.5039C6.50236 8.5039 6.41669 8.44985 6.38065 8.36083C6.33331 8.24378 6.38969 8.11051 6.50663 8.06299C6.51655 8.05894 7.50135 7.64843 7.76739 6.83106C7.80648 6.71088 7.93559 6.64512 8.05585 6.68429C8.176 6.72339 8.24175 6.85253 8.20262 6.97272C7.86987 7.99502 6.72716 8.46751 6.67868 8.48712C6.6505 8.49848 6.62143 8.5039 6.59287 8.5039Z" fill="#41F5C0"/>
<path d="M5.11175 6.46464C5.12876 6.36543 5.09589 6.26424 5.0238 6.19399L4.32604 5.51381C4.18088 5.37231 4.26097 5.12573 4.4616 5.09659L5.42589 4.95646C5.52547 4.942 5.61156 4.87941 5.65611 4.78921L5.9533 4.18707L5.7251 3.72468C5.63536 3.54286 5.37615 3.54286 5.2864 3.72468L4.85514 4.5985C4.81059 4.68874 4.7245 4.75129 4.62492 4.76575L3.66063 4.90588C3.46001 4.93502 3.37987 5.1816 3.52508 5.32311L4.22283 6.00328C4.29488 6.07354 4.32776 6.17473 4.31079 6.27393L4.14605 7.23433C4.1118 7.43415 4.3215 7.58653 4.50096 7.4922L4.97856 7.24112L5.11175 6.46464Z" fill="#41F5C0"/>
<path d="M8.98795 5.7257C8.98795 5.90485 8.97433 6.08084 8.94809 6.25278L9.25044 6.29405C9.27847 6.1086 9.29308 5.91885 9.29308 5.7257C9.29308 4.67041 8.85907 3.71474 8.16036 3.02728L8.03918 3.33935C8.62706 3.96308 8.98795 4.80299 8.98795 5.7257Z" fill="#00C389"/>
</svg>
